<svg xmlns="http://www.w3.org/2000/svg" viewBox="0 0 96 120" x="0px" y="0px"><title>Artboard 27</title><g><path d="M38.36,68.931l-.0012-19.2284c0-2.703-1.2861-3.2243-2.0381-2.4723L21.5746,61.9762a3.0224,3.0224,0,0,0,.4241,4.6065,31.8211,31.8211,0,0,0,12.8367,5.3016A3.0068,3.0068,0,0,0,38.36,68.931Z"/><path d="M45.9127,71.8808A31.81,31.81,0,0,0,58.71,66.5966a3.0385,3.0385,0,0,0,.4265-4.6318L44.4356,47.2637c-.7641-.7641-2.0708-.2316-2.0705,2.493l.0011,19.1517A3.0259,3.0259,0,0,0,45.9127,71.8808Z"/><path d="M68.92,38.3545a3.02,3.02,0,0,0,2.9664-3.54,31.82,31.82,0,0,0-5.2989-12.8213,3.0225,3.0225,0,0,0-4.6065-.4241L47.2355,36.3152a1.1938,1.1938,0,0,0,.8441,2.0379Z"/><path d="M66.6018,58.7049A31.81,31.81,0,0,0,71.886,45.9075a3.0259,3.0259,0,0,0-2.9723-3.5466L49.7619,42.36c-2.7245,0-3.2571,1.3063-2.493,2.07L61.97,59.1314A3.0384,3.0384,0,0,0,66.6018,58.7049Z"/><path d="M67.1878,16.3629a37.7143,37.7143,0,0,1,2.6467,3.1753,36.1433,36.1433,0,0,1,0,41.6356,42.7925,42.7925,0,0,1-8.6554,8.6553,36.1431,36.1431,0,0,1-41.6355,0,37.6824,37.6824,0,0,1-3.1753-2.6467l-4.1022,4.1022a2.0142,2.0142,0,0,0,.1077,2.954,43.9412,43.9412,0,0,0,61.8865-61.85,2.0372,2.0372,0,0,0-2.9888-.1092Z"/></g><text x="0" y="111" fill="#000000" font-size="5px" font-weight="bold" font-family="'Helvetica Neue', Helvetica, Arial-Unicode, Arial, Sans-serif">Created by Nociconist</text><text x="0" y="116" fill="#000000" font-size="5px" font-weight="bold" font-family="'Helvetica Neue', Helvetica, Arial-Unicode, Arial, Sans-serif">from the Noun Project</text></svg>
