<?xml version="1.0" encoding="UTF-8" standalone="no"?>
<!DOCTYPE svg PUBLIC "-//W3C//DTD SVG 1.1//EN" "http://www.w3.org/Graphics/SVG/1.1/DTD/svg11.dtd">
<svg width="100%" height="100%" viewBox="0 0 73 73" version="1.1" xmlns="http://www.w3.org/2000/svg" xmlns:xlink="http://www.w3.org/1999/xlink" xml:space="preserve" xmlns:serif="http://www.serif.com/" style="fill-rule:evenodd;clip-rule:evenodd;stroke-linejoin:round;stroke-miterlimit:2;">
    <g transform="matrix(1,0,0,1,-11.6733,-11.6793)">
        <path d="M38.36,68.931L38.359,49.703C38.359,47 37.073,46.478 36.321,47.23L21.575,61.976C21.015,62.542 20.702,63.306 20.702,64.101C20.702,65.09 21.187,66.018 21.999,66.583C25.835,69.273 30.219,71.084 34.835,71.884C35.006,71.914 35.18,71.929 35.353,71.929C36.999,71.929 38.355,70.577 38.36,68.931Z" style="fill-rule:nonzero;"/>
        <path d="M45.913,71.881C50.515,71.08 54.884,69.276 58.71,66.597C59.527,66.029 60.015,65.096 60.015,64.101C60.015,63.302 59.699,62.533 59.137,61.965L44.436,47.264C43.672,46.5 42.365,47.032 42.365,49.757L42.366,68.908C42.371,70.565 43.735,71.926 45.392,71.926C45.567,71.926 45.741,71.911 45.913,71.881Z" style="fill-rule:nonzero;"/>
        <path d="M68.92,38.355C70.574,38.35 71.932,36.988 71.932,35.335C71.932,35.16 71.916,34.986 71.886,34.815C71.085,30.203 69.275,25.825 66.588,21.993C66.023,21.181 65.095,20.696 64.106,20.696C63.311,20.696 62.547,21.01 61.981,21.569L47.236,36.315C47.012,36.539 46.886,36.843 46.886,37.159C46.886,37.814 47.425,38.353 48.08,38.353L68.92,38.355Z" style="fill-rule:nonzero;"/>
        <path d="M66.602,58.705C69.281,54.879 71.086,50.509 71.886,45.908C71.916,45.736 71.931,45.561 71.931,45.387C71.931,43.73 70.57,42.366 68.914,42.361L49.762,42.36C47.037,42.36 46.505,43.666 47.269,44.43L61.97,59.131C62.539,59.694 63.307,60.01 64.107,60.01C65.101,60.01 66.034,59.521 66.602,58.705Z" style="fill-rule:nonzero;"/>
        <path d="M67.188,16.363C68.127,17.372 69.011,18.432 69.834,19.538C78.61,31.993 78.61,48.719 69.835,61.174C67.379,64.459 64.464,67.374 61.179,69.829C48.724,78.605 31.998,78.605 19.544,69.829C18.438,69.006 17.378,68.122 16.368,67.182L12.266,71.285C11.887,71.662 11.673,72.176 11.673,72.712C11.673,73.298 11.929,73.856 12.374,74.239C20.254,80.766 30.171,84.339 40.403,84.339C64.509,84.339 84.345,64.504 84.345,40.398C84.345,30.175 80.777,20.266 74.26,12.389C73.874,11.939 73.309,11.679 72.715,11.679C72.174,11.679 71.654,11.895 71.271,12.279L67.188,16.363Z" style="fill-rule:nonzero;"/>
    </g>
</svg>
